<svg width="416" height="97" viewBox="0 0 416 97" fill="none" xmlns="http://www.w3.org/2000/svg">
<path d="M25.3099 75.2309C37.8133 75.2309 47.8344 69.7429 47.8344 58.4925C47.8344 48.4312 39.744 45.6872 25.3099 42.3944C17.9549 40.748 15.6565 40.2906 15.6565 37.9125C15.6565 35.1685 18.8743 33.705 24.1147 33.705C30.1825 33.705 32.9406 35.6259 33.9519 38.8272H47.2828C45.536 29.4976 38.6407 22.7291 24.5744 22.7291C11.2435 22.7291 2.41754 28.8573 2.41754 39.4674C2.41754 48.1568 8.3015 51.3581 22.6437 54.7424C30.2744 56.5717 34.2277 56.8461 34.2277 60.2304C34.2277 62.9744 31.4696 64.3464 25.6776 64.3464C17.4952 64.3464 14.4613 61.6024 13.45 57.5778H0.11911C1.95785 68.6453 11.7951 75.2309 25.3099 75.2309ZM90.7848 23.8267L78.1894 53.2789L65.686 23.8267H51.7115L71.2022 67.4562L57.9632 97H71.9377L104.851 23.8267H90.7848ZM140.899 22.7291C133.912 22.7291 128.855 25.5645 125.178 30.6866V23.8267H112.031V74.1333H125.178V47.6994C125.178 39.4674 129.131 35.1685 136.578 35.1685C143.565 35.1685 146.047 38.8272 146.047 45.4128V74.1333H159.194V42.5773C159.194 30.2293 152.299 22.7291 140.899 22.7291ZM207.008 23.8267V30.8696C203.515 26.0218 198.182 22.7291 191.011 22.7291C178.048 22.7291 168.027 33.4307 168.027 48.98C168.027 64.4378 177.864 75.2309 191.103 75.2309C198.182 75.2309 203.423 72.121 206.916 67.3648V74.1333H220.063L220.155 23.8267H207.008ZM194.045 62.7914C186.782 62.7914 181.266 57.3034 181.266 48.98C181.266 40.748 186.69 35.1685 194.045 35.1685C201.4 35.1685 207.008 40.748 207.008 48.98C207.008 57.3034 201.4 62.7914 194.045 62.7914ZM260.237 22.7291C253.158 22.7291 247.733 26.0218 244.24 30.8696V23.8267H231.093V97H244.24V67.3648C247.825 72.121 253.066 75.2309 260.237 75.2309C273.384 75.2309 283.313 64.4378 283.313 48.98C283.313 33.4307 273.2 22.7291 260.237 22.7291ZM257.203 62.7914C249.848 62.7914 244.24 57.3034 244.24 48.98C244.24 40.748 249.848 35.1685 257.203 35.1685C264.558 35.1685 269.982 40.748 269.982 48.98C269.982 57.3034 264.466 62.7914 257.203 62.7914ZM330.094 60.5963C325.958 62.0597 322.465 63.0658 319.523 63.0658C314.282 63.0658 311.432 59.956 311.432 54.0106V36.1747H330.186V23.8267H311.432V10.1067L298.285 12.9421V23.8267H289.275V36.1747H298.285V54.7424C298.285 69.1941 307.111 75.2309 317.224 75.2309C323.292 75.2309 329.543 73.0357 332.301 71.2064L330.094 60.5963ZM347.506 0.594116C342.91 0.594116 339.324 3.79545 339.324 8.27732C339.324 12.7592 342.91 16.052 347.506 16.052C352.287 16.052 355.689 12.7592 355.689 8.27732C355.689 3.79545 352.287 0.594116 347.506 0.594116ZM340.887 74.1333H354.034V23.8267H340.887V74.1333ZM415.704 74.1333L391.065 47.7909L414.141 23.8267H397.408L378.194 44.7725V3.70399H365.047V74.1333H378.194V52.1813L398.879 74.1333H415.704Z" fill="#232323"/>
</svg>
