<svg width="32" height="32" viewBox="0 0 32 32" fill="none" xmlns="http://www.w3.org/2000/svg">
<rect width="32" height="32" rx="3" fill="#7C26B9"/>
<path d="M16.2426 25.2864C20.8302 25.2864 24.5071 23.2704 24.5071 19.1376C24.5071 15.4416 21.5386 14.4336 16.2426 13.224C13.5441 12.6192 12.7008 12.4512 12.7008 11.5776C12.7008 10.5696 13.8814 10.032 15.8041 10.032C18.0305 10.032 19.0424 10.7376 19.4135 11.9136H24.3047C23.6637 8.4864 21.1338 6 15.9728 6C11.0816 6 7.84331 8.2512 7.84331 12.1488C7.84331 15.3408 10.0022 16.5168 15.2644 17.76C18.0642 18.432 19.5147 18.5328 19.5147 19.776C19.5147 20.784 18.5027 21.288 16.3776 21.288C13.3754 21.288 12.2622 20.28 11.8912 18.8016H7C7.67465 22.8672 11.284 25.2864 16.2426 25.2864Z" fill="white"/>
</svg>
